<?xml version="1.0" encoding="UTF-8" standalone="no"?>
<!-- Created with Inkscape (http://www.inkscape.org/) -->

<svg
   width="50mm"
   height="10mm"
   viewBox="0 0 50 10"
   version="1.1"
   id="svg5"
   inkscape:version="1.1.2 (0a00cf5339, 2022-02-04)"
   sodipodi:docname="indiflightLight.svg"
   xmlns:inkscape="http://www.inkscape.org/namespaces/inkscape"
   xmlns:sodipodi="http://sodipodi.sourceforge.net/DTD/sodipodi-0.dtd"
   xmlns="http://www.w3.org/2000/svg"
   xmlns:svg="http://www.w3.org/2000/svg">
  <sodipodi:namedview
     id="namedview7"
     pagecolor="#ffffff"
     bordercolor="#666666"
     borderopacity="1.0"
     inkscape:pageshadow="2"
     inkscape:pageopacity="0.0"
     inkscape:pagecheckerboard="0"
     inkscape:document-units="mm"
     showgrid="false"
     inkscape:zoom="2.3461711"
     inkscape:cx="88.015747"
     inkscape:cy="97.818953"
     inkscape:window-width="1920"
     inkscape:window-height="1136"
     inkscape:window-x="0"
     inkscape:window-y="27"
     inkscape:window-maximized="1"
     inkscape:current-layer="layer1"
     width="40mm" />
  <defs
     id="defs2" />
  <g
     inkscape:label="Layer 1"
     inkscape:groupmode="layer"
     id="layer1">
    <g
       aria-label="INDIFLIGHT"
       transform="matrix(1.1072872,0,0,0.90310807,-1.1168212,-1.5782698)"
       id="text627"
       style="font-size:7.64632px;line-height:1.25;letter-spacing:0px;fill:#727272;fill-opacity:1;stroke-width:0.238947">
      <path
         d="M 11.32624,5.6019128 10.362803,11.09197 H 9.4223059 L 10.385742,5.6019128 Z"
         style="font-style:italic;font-weight:bold;font-family:'Nimbus Sans L';-inkscape-font-specification:'Nimbus Sans L Bold Italic';fill:#00a6d6;fill-opacity:1"
         id="path71801" />
      <path
         d="m 14.277709,9.455658 0.66523,-3.8537452 h 0.879327 L 14.866476,11.09197 H 13.925979 L 12.763738,7.1541157 12.083216,11.09197 h -0.879327 l 0.95579,-5.4900572 h 0.986375 z"
         style="font-style:italic;font-weight:bold;font-family:'Nimbus Sans L';-inkscape-font-specification:'Nimbus Sans L Bold Italic';fill:#00a6d6;fill-opacity:1"
         id="path71803" />
      <path
         d="m 15.768734,11.09197 0.95579,-5.4900572 h 1.99569 q 0.657583,0 1.01696,0.382316 0.191158,0.1988043 0.305853,0.5811203 0.122341,0.382316 0.122341,0.8105099 0,0.7722783 -0.237036,1.5445566 -0.229389,0.7722783 -0.626998,1.2998744 -0.642291,0.87168 -1.582788,0.87168 z M 17.48151,6.5500564 16.854512,10.143827 h 0.917558 q 0.619352,0 1.001668,-0.7569859 0.412901,-0.8028636 0.412901,-1.8274704 0,-1.0093143 -0.795217,-1.0093143 z"
         style="font-style:italic;font-weight:bold;font-family:'Nimbus Sans L';-inkscape-font-specification:'Nimbus Sans L Bold Italic';fill:#00a6d6;fill-opacity:1"
         id="path71805" />
      <path
         d="M 22.122819,5.6019128 21.159383,11.09197 h -0.940498 l 0.963437,-5.4900572 z"
         style="font-style:italic;font-weight:bold;font-family:'Nimbus Sans L';-inkscape-font-specification:'Nimbus Sans L Bold Italic';fill:#00a6d6;fill-opacity:1"
         id="path71807" />
      <path
         d="M 23.384452,8.7827818 22.979197,11.09197 h -0.940498 l 0.95579,-5.4900572 h 3.203808 l -0.168219,0.9710826 h -2.26331 l -0.214097,1.2387038 h 1.980397 l -0.168219,0.9710826 z"
         style="font-style:italic;font-weight:bold;font-family:'Nimbus Sans L';-inkscape-font-specification:'Nimbus Sans L Bold Italic';fill:#ffffff;fill-opacity:1;stroke:none;stroke-opacity:1"
         id="path71809" />
      <path
         d="m 27.76579,5.6019128 -0.779925,4.4960362 h 2.240372 l -0.175866,0.994021 h -3.180869 l 0.95579,-5.4900572 z"
         style="font-style:italic;font-weight:bold;font-family:'Nimbus Sans L';-inkscape-font-specification:'Nimbus Sans L Bold Italic';fill:#ffffff;fill-opacity:1;stroke:none;stroke-opacity:1"
         id="path71811" />
      <path
         d="M 31.527774,5.6019128 30.564338,11.09197 H 29.62384 l 0.963437,-5.4900572 z"
         style="font-style:italic;font-weight:bold;font-family:'Nimbus Sans L';-inkscape-font-specification:'Nimbus Sans L Bold Italic';fill:#ffffff;fill-opacity:1;stroke:none;stroke-opacity:1"
         id="path71813" />
      <path
         d="m 33.913416,9.0580494 0.160572,-0.9252047 h 1.888641 L 35.44268,11.09197 h -0.626999 l 0.02294,-0.688168 q -0.405255,0.466425 -0.749339,0.649937 -0.344084,0.183512 -0.795217,0.183512 -0.756986,0 -1.200472,-0.550536 -0.443487,-0.550535 -0.443487,-1.4986782 0,-0.7340467 0.221743,-1.4604471 0.22939,-0.7264004 0.626999,-1.2463501 0.779924,-1.0246069 1.934518,-1.0246069 0.74934,0 1.200473,0.4434866 0.458779,0.4434865 0.458779,1.1775332 0,0.1299875 -0.0076,0.2293896 H 35.14452 v -0.045878 q 0,-0.359377 -0.244682,-0.6040593 -0.244682,-0.2523285 -0.596413,-0.2523285 -0.328792,0 -0.634645,0.191158 -0.305852,0.1835116 -0.527596,0.5199497 -0.229389,0.3440844 -0.374669,0.8793268 -0.14528,0.5352424 -0.14528,1.0475458 0,0.5811203 0.259975,0.9022658 0.267621,0.3211456 0.741693,0.3211456 0.43584,0 0.802863,-0.328792 Q 34.601631,9.7768033 34.70868,9.5932916 34.823375,9.40978 34.961009,9.0580493 Z"
         style="font-style:italic;font-weight:bold;font-family:'Nimbus Sans L';-inkscape-font-specification:'Nimbus Sans L Bold Italic';fill:#ffffff;fill-opacity:1;stroke:none;stroke-opacity:1"
         id="path71815" />
      <path
         d="M 39.418756,8.6298554 H 37.660102 L 37.231908,11.09197 h -0.940497 l 0.95579,-5.4900572 h 0.940497 l -0.359377,2.079799 h 1.758654 l 0.359377,-2.079799 h 0.940497 l -0.95579,5.4900572 h -0.940497 z"
         style="font-style:italic;font-weight:bold;font-family:'Nimbus Sans L';-inkscape-font-specification:'Nimbus Sans L Bold Italic';fill:#ffffff;fill-opacity:1;stroke:none;stroke-opacity:1"
         id="path71817" />
      <path
         d="M 43.547762,6.5729954 42.760191,11.09197 H 41.819694 L 42.607265,6.5729954 H 41.24622 l 0.168219,-0.9710826 h 3.662587 l -0.168219,0.9710826 z"
         style="font-style:italic;font-weight:bold;font-family:'Nimbus Sans L';-inkscape-font-specification:'Nimbus Sans L Bold Italic';fill:#ffffff;fill-opacity:1;stroke:none;stroke-opacity:1"
         id="path71819" />
    </g>
    <g
       aria-label="Δ"
       id="text37105"
       style="font-size:9.87778px;line-height:1.25;fill:#00a6d6;fill-opacity:1;stroke-width:0.264583"
       transform="translate(-1.1168212,-1.5782698)">
      <path
         d="M 8.7355139,9.9642954 H 1.7033835 L 4.6358494,2.7633552 H 5.7885786 Z M 2.6197791,9.3806961 h 3.901916 L 4.5827949,4.5720307 Z"
         style="font-weight:bold;font-family:serif;-inkscape-font-specification:'serif Bold';fill:#00a6d6;fill-opacity:1"
         id="path71822" />
    </g>
  </g>
</svg>
